<svg xmlns="http://www.w3.org/2000/svg" width="129" height="34" viewBox="0 0 129 34">
<g class="svg-stroke-container" fill="#FFF" fill-rule="evenodd">
<path fill-rule="nonzero" d="M24.179 27.778c-1.318 1.916-2.682 3.82-4.835 3.86-2.118.04-2.798-1.247-5.215-1.247-2.42 0-3.177 1.208-5.178 1.288-2.078.077-3.658-2.07-4.987-3.977-2.715-3.9-4.788-11.027-2-15.837 1.38-2.389 3.853-3.9 6.532-3.94 2.041-.038 3.97 1.368 5.216 1.368 1.248 0 3.589-1.687 6.049-1.44 1.03.042 3.92.412 5.776 3.112-.146.096-3.45 2.007-3.41 5.986.041 4.754 4.192 6.335 4.24 6.356-.038.112-.664 2.256-2.188 4.471zM15.14 2.631C16.28 1.303 18.205.316 19.793.25c.203 1.843-.543 3.69-1.645 5.02-1.104 1.328-2.911 2.362-4.685 2.224-.241-1.804.653-3.685 1.677-4.863z"></path>
<path d="M42.684 1.954H45.1c2.09 0 3.325 1.304 3.325 3.52C48.426 7.697 47.196 9 45.1 9h-2.417V1.954zm.879.791V8.21h1.479c1.597 0 2.485-.977 2.485-2.725 0-1.762-.883-2.739-2.485-2.739h-1.48zm9.012 6.304c-1.48 0-2.427-1.05-2.427-2.68 0-1.637.948-2.681 2.427-2.681 1.48 0 2.427 1.044 2.427 2.68 0 1.631-.947 2.68-2.427 2.68zm0-.757c.982 0 1.563-.718 1.563-1.924 0-1.21-.581-1.924-1.563-1.924-.981 0-1.562.718-1.562 1.924s.586 1.924 1.562 1.924zm10.98-4.556h-.84l-1.069 4.302h-.019l-1.206-4.302h-.82l-1.206 4.302h-.02l-1.07-4.302h-.84L57.94 9h.86L60 4.908h.02L61.22 9h.86l1.475-5.264zM65.279 9h.85V5.943c0-.903.522-1.499 1.387-1.499.83 0 1.23.47 1.23 1.328V9h.85V5.626c0-1.196-.67-1.939-1.826-1.939-.816 0-1.338.308-1.67.904h-.02v-.855h-.8V9zm6.493 0h.85V1.646h-.85V9zm5.22.049c-1.48 0-2.428-1.05-2.428-2.68 0-1.637.948-2.681 2.427-2.681 1.48 0 2.427 1.044 2.427 2.68 0 1.631-.947 2.68-2.427 2.68zm0-.757c.98 0 1.562-.718 1.562-1.924 0-1.21-.581-1.924-1.563-1.924-.981 0-1.562.718-1.562 1.924s.586 1.924 1.562 1.924zm6.038.02c.86 0 1.49-.557 1.49-1.314v-.425l-1.377.088c-.791.049-1.202.337-1.202.845 0 .488.425.806 1.09.806zm-.18.737c-1.07 0-1.778-.615-1.778-1.548 0-.903.694-1.436 1.973-1.514l1.475-.088V5.46c0-.654-.43-1.016-1.207-1.016-.61 0-1.064.313-1.166.81h-.816c.024-.888.889-1.566 1.992-1.566 1.245 0 2.046.664 2.046 1.699V9h-.805v-.913h-.02c-.298.586-.957.962-1.694.962zm6.644 0c-1.323 0-2.256-1.074-2.256-2.68 0-1.607.928-2.681 2.237-2.681.752 0 1.357.327 1.68.903h.019V1.646h.85V9h-.811v-.889h-.015c-.342.606-.942.938-1.704.938zm.152-4.605c-.923 0-1.539.762-1.539 1.924 0 1.167.616 1.924 1.539 1.924.913 0 1.533-.776 1.533-1.924 0-1.142-.62-1.924-1.533-1.924zm10.14 4.605c-1.48 0-2.428-1.05-2.428-2.68 0-1.637.948-2.681 2.427-2.681 1.48 0 2.427 1.044 2.427 2.68 0 1.631-.947 2.68-2.427 2.68zm0-.757c.98 0 1.562-.718 1.562-1.924 0-1.21-.581-1.924-1.563-1.924-.981 0-1.562.718-1.562 1.924s.586 1.924 1.562 1.924zm4.32.708h.85V5.943c0-.903.522-1.499 1.386-1.499.83 0 1.23.47 1.23 1.328V9h.85V5.626c0-1.196-.669-1.939-1.826-1.939-.816 0-1.338.308-1.67.904h-.02v-.855h-.8V9zm10.115-6.45v1.186h-.733v.703h.733v3.194c0 1.01.37 1.406 1.323 1.406.2 0 .444-.02.547-.044v-.718a3.52 3.52 0 0 1-.366.025c-.45 0-.655-.22-.655-.703v-3.16h1.026v-.703h-1.026V2.55h-.85zM118.086 9h.85V5.973c0-.923.546-1.529 1.435-1.529.835 0 1.26.508 1.26 1.348V9h.85V5.64c0-1.171-.704-1.952-1.856-1.952-.806 0-1.343.307-1.67.903h-.02V1.646h-.85V9zm8.622-4.565c-.825 0-1.42.6-1.48 1.489h2.896c-.02-.894-.586-1.49-1.416-1.49zm1.396 3.061h.84c-.146.903-1.06 1.553-2.182 1.553-1.48 0-2.412-1.03-2.412-2.661s.937-2.7 2.373-2.7c1.406 0 2.285.99 2.285 2.583v.332h-3.78v.048c0 1.001.616 1.65 1.553 1.65.66 0 1.172-.312 1.323-.805zM51.558 30l-1.289-3.809H44.9L43.608 30h-2.275l5.088-14.092h2.363L53.873 30h-2.315zm-4.004-11.748l-2.1 6.182h4.259l-2.1-6.182h-.059zm13.125 1.035c2.705 0 4.483 2.12 4.483 5.41 0 3.282-1.768 5.41-4.434 5.41-1.523 0-2.724-.673-3.36-1.845h-.038v5.254h-2.12V19.395h2.042v1.757h.049c.595-1.142 1.904-1.865 3.378-1.865zm-.537 9.024c1.72 0 2.852-1.416 2.852-3.614 0-2.187-1.133-3.613-2.852-3.613-1.68 0-2.822 1.455-2.832 3.613.01 2.168 1.143 3.614 2.832 3.614zm12.178-9.024c2.705 0 4.482 2.12 4.482 5.41 0 3.282-1.767 5.41-4.433 5.41-1.524 0-2.725-.673-3.36-1.845h-.039v5.254h-2.119V19.395h2.041v1.757h.05c.595-1.142 1.903-1.865 3.378-1.865zm-.537 9.024c1.719 0 2.851-1.416 2.851-3.614 0-2.187-1.132-3.613-2.851-3.613-1.68 0-2.822 1.455-2.832 3.613.01 2.168 1.142 3.614 2.832 3.614zm10.908-2.237c.137 2.549 2.246 4.16 5.371 4.16 3.34 0 5.44-1.65 5.44-4.287 0-2.06-1.201-3.222-4.092-3.906l-1.553-.38c-1.816-.45-2.558-1.036-2.558-2.032 0-1.25 1.162-2.11 2.86-2.11 1.7 0 2.862.85 2.99 2.256h2.128c-.068-2.431-2.11-4.101-5.088-4.101-3.008 0-5.127 1.67-5.127 4.101 0 1.963 1.201 3.174 3.79 3.8l1.825.439c1.827.449 2.598 1.103 2.598 2.197 0 1.26-1.28 2.178-3.057 2.178-1.855 0-3.212-.918-3.369-2.315h-2.158zm13.193-9.062v2.383H94.42v1.67h1.464v6.142c0 2.05.82 2.861 2.94 2.861.459 0 .957-.048 1.191-.107v-1.67c-.136.02-.498.049-.722.049-.889 0-1.3-.43-1.3-1.348v-5.928h2.032v-1.67h-2.031v-2.382h-2.11zm10.47 13.115c-3.067 0-5.02-2.09-5.02-5.43 0-3.33 1.963-5.44 5.02-5.44 3.056 0 5.009 2.1 5.009 5.44 0 3.34-1.943 5.43-5.01 5.43zm0-1.758c1.796 0 2.86-1.357 2.86-3.672 0-2.314-1.064-3.681-2.86-3.681-1.798 0-2.872 1.377-2.872 3.681 0 2.315 1.074 3.672 2.871 3.672zM113.061 30h2.12v-6.328c0-1.494.878-2.461 2.275-2.461.42 0 .79.059.967.127v-1.983a3.476 3.476 0 0 0-.743-.068c-1.25 0-2.226.713-2.558 1.895h-.04v-1.787h-2.02V30zm11.133-9.014c-1.523 0-2.627 1.114-2.744 2.744h5.38c-.048-1.65-1.093-2.744-2.636-2.744zm2.627 5.909h2.021c-.302 1.904-2.167 3.232-4.55 3.232-3.076 0-4.99-2.07-4.99-5.39 0-3.321 1.933-5.48 4.902-5.48 2.91 0 4.746 2.022 4.746 5.235v.742h-7.51v.127c0 1.836 1.152 3.047 2.89 3.047 1.231 0 2.198-.586 2.491-1.513z"></path>
</g>
</svg>
