
<svg width="93px" height="30px" viewBox="270 0 745 180" version="1.1" xmlns="http://www.w3.org/2000/svg" xmlns:xlink="http://www.w3.org/1999/xlink">
  <defs>
    <polygon id="path-2" points="0 179.94 1013.13 179.94 1013.13 0.573 0 0.573"></polygon>
  </defs>
  <g id="Page-1" class="svg-stroke-container" stroke="none" stroke-width="1" fill="none" fill-rule="evenodd">
    <g id="pink_horizontal_foodora_logo_svg">
      <g id="Logo_foodora_horizonzal_pink_cmyk">
        <path d="M275.556,66.437 L294.219,66.437 L294.219,49.134 C294.219,28.137 305.885,14.141 329.213,14.141 L340.878,16.473 L340.878,37.47 L328.047,35.136 C321.048,35.136 317.549,39.802 317.549,46.801 L317.549,66.437 L340.878,66.437 L340.878,87.433 L317.549,87.433 L317.549,176.083 L294.219,176.083 L294.219,87.433 L275.556,87.433 L275.556,66.437" id="Fill-1" fill="#d70f64"></path>
        <path d="M401.39,157.42 C423.553,157.42 435.217,141.09 435.217,121.261 C435.217,101.43 423.553,85.1 401.39,85.1 C379.228,85.1 367.563,101.43 367.563,121.261 C367.563,141.09 379.228,157.42 401.39,157.42 Z M401.39,64.104 C431.717,64.104 458.546,87.433 458.546,121.261 C458.546,155.088 431.717,178.416 401.39,178.416 C371.063,178.416 344.234,155.088 344.234,121.261 C344.234,87.433 371.063,64.104 401.39,64.104 L401.39,64.104 Z" id="Fill-2" fill="#d70f64"></path>
        <path d="M526.008,157.42 C548.171,157.42 559.835,141.09 559.835,121.261 C559.835,101.43 548.171,85.1 526.008,85.1 C503.846,85.1 492.18,101.43 492.18,121.261 C492.18,141.09 503.846,157.42 526.008,157.42 Z M526.008,64.104 C556.335,64.104 583.164,87.433 583.164,121.261 C583.164,155.088 556.335,178.416 526.008,178.416 C495.68,178.416 468.852,155.088 468.852,121.261 C468.852,87.433 495.68,64.104 526.008,64.104 L526.008,64.104 Z" id="Fill-3" fill="#d70f64"></path>
        <path d="M650.625,85.1 C628.463,85.1 616.566,101.43 616.566,121.261 C616.566,141.09 628.463,157.42 650.625,157.42 C670.456,157.42 684.453,141.09 684.453,121.261 C684.453,101.43 670.456,85.1 650.625,85.1 Z M705.448,176.083 L684.453,176.083 L682.12,166.752 L680.953,165.586 L679.786,166.752 C672.789,173.751 661.125,178.416 649.46,178.416 C619.131,178.416 593.469,155.088 593.469,121.261 C593.469,87.433 619.131,64.104 649.46,64.104 C660.89,64.104 672.789,68.77 679.786,75.768 L680.953,76.935 L682.12,75.768 L682.12,14.141 L705.448,14.141 L705.448,176.083 L705.448,176.083 Z" id="Fill-4" fill="#d70f64"></path>
        <path d="M777.584,157.454 C799.748,157.454 811.412,141.123 811.412,121.294 C811.412,101.465 799.748,85.134 777.584,85.134 C755.422,85.134 743.757,101.465 743.757,121.294 C743.757,141.123 755.422,157.454 777.584,157.454 Z M777.584,64.138 C807.913,64.138 834.741,87.467 834.741,121.294 C834.741,155.121 807.913,178.449 777.584,178.449 C747.257,178.449 720.429,155.121 720.429,121.294 C720.429,87.467 747.257,64.138 777.584,64.138 L777.584,64.138 Z" id="Fill-5" fill="#d70f64"></path>
        <path d="M849.722,66.473 L870.694,66.473 L873.024,78.138 L874.189,79.304 L875.353,78.138 C882.344,68.805 891.666,64.14 900.985,64.14 C905.645,64.14 907.975,64.14 912.635,66.473 L912.635,87.469 L898.654,87.469 C884.907,87.469 873.49,98.667 873.024,112.198 L873.024,176.119 L849.722,176.119 L849.722,66.473" id="Fill-6" fill="#d70f64"></path>
        <g id="Group-11">
          <mask id="mask-logo-1" fill="white">
            <use xlink:href="#path-2"></use>
          </mask>
          <g id="Clip-8"></g>
          <path d="M961.302,157.66 C968.99,157.66 975.798,155.245 981.505,150.414 C987.435,145.363 990.291,138.555 990.291,129.552 L990.291,127.136 L970.306,127.136 C956.251,127.136 947.468,133.723 947.468,144.264 C947.468,152.171 952.298,157.66 961.302,157.66 Z M971.185,108.03 L990.291,108.03 L990.291,103.199 C990.291,90.023 981.287,83.874 968.771,83.874 C958.667,83.874 951.861,88.705 948.126,98.588 L927.263,94.195 C931.876,75.529 947.908,63.671 968.99,63.671 C998.416,63.671 1013.13,78.165 1013.13,107.372 L1013.13,176.107 L993.804,176.107 L991.609,161.613 C983.923,172.374 972.503,177.864 957.349,177.864 C937.806,177.864 923.312,166.225 923.312,144.264 C923.312,121.645 942.417,108.03 971.185,108.03 L971.185,108.03 Z" id="Fill-7" fill="#d70f64" mask="url(#mask-logo-1)"></path>
        </g>
      </g>
    </g>
  </g>
</svg>
