<svg xmlns="http://www.w3.org/2000/svg" width="130" height="33" viewBox="0 0 130 33">
<g class="svg-stroke-container" fill="#FFFFFF" fill-rule="evenodd">
<g transform="translate(40)">
<path d="M66.6889396 24.3417969C66.6889396 25.0566442 66.608374 25.709958 66.4472404 26.3017578 66.2861068 26.8935576 66.0502693 27.4018533 65.7397209 27.8266602 65.4291724 28.251467 65.0497817 28.5825183 64.6015373 28.8198242 64.1532929 29.0571301 63.6420675 29.1757812 63.0678459 29.1757812 62.388155 29.1757812 61.8007585 29.0542004 61.3056388 28.8110352 60.8105192 28.5678699 60.4018319 28.232424 60.0795646 27.8046875L60.0795646 32.65625 59.0336662 32.65625 59.0336662 19.4902344 60.0092521 19.4902344 60.0619865 20.8349609C60.3842537 20.3603492 60.7914762 19.9882826 61.2836662 19.71875 61.7758562 19.4492174 62.3617878 19.3144531 63.0414787 19.3144531 63.6215597 19.3144531 64.1386444 19.4287098 64.5927482 19.6572266 65.0468521 19.8857433 65.4291724 20.2109354 65.7397209 20.6328125 66.0502693 21.0546896 66.2861068 21.5629853 66.4472404 22.1577148 66.608374 22.7524444 66.6889396 23.4189416 66.6889396 24.1572266L66.6889396 24.3417969zM65.6342521 24.1572266C65.6342521 23.6064426 65.5771238 23.0908227 65.4628654 22.6103516 65.348607 22.1298804 65.1757572 21.7138689 64.9443107 21.3623047 64.7128643 21.0107404 64.4184336 20.7338877 64.0610099 20.5317383 63.7035863 20.3295888 63.2846452 20.2285156 62.804174 20.2285156 62.4233127 20.2285156 62.086402 20.2783198 61.7934318 20.3779297 61.5004616 20.4775396 61.2441165 20.610839 61.0243888 20.777832 60.8046612 20.9448251 60.6171631 21.1381825 60.4618888 21.3579102 60.3066146 21.5776378 60.1791745 21.807616 60.0795646 22.0478516L60.0795646 26.609375C60.1908933 26.8496106 60.3300521 27.0722646 60.4970451 27.2773438 60.6640381 27.4824229 60.8603252 27.6596672 61.0859123 27.809082 61.3114993 27.9584968 61.5678444 28.0756832 61.8549553 28.1606445 62.1420661 28.2456059 62.4643285 28.2880859 62.8217521 28.2880859 63.3022233 28.2880859 63.7182347 28.1870127 64.069799 27.9848633 64.4213633 27.7827138 64.7128643 27.5043963 64.9443107 27.1499023 65.1757572 26.7954084 65.348607 26.3779321 65.4628654 25.8974609 65.5771238 25.4169898 65.6342521 24.8984403 65.6342521 24.3417969L65.6342521 24.1572266zM70.1957756 29L69.1410881 29 69.1410881 15.5 70.1957756 15.5 70.1957756 29zM79.0551506 29C78.9965565 28.8359367 78.9511468 28.6352551 78.9189201 28.3979492 78.8866934 28.1606433 78.8647209 27.9189465 78.8530021 27.6728516 78.6947982 27.8779307 78.5073001 28.0712882 78.2905021 28.2529297 78.0737042 28.4345712 77.8305425 28.5927728 77.5610099 28.7275391 77.2914773 28.8623054 76.9955819 28.9707027 76.6733146 29.0527344 76.3510474 29.134766 76.0024181 29.1757812 75.6274162 29.1757812 75.1645233 29.1757812 74.7441173 29.1083991 74.3661857 28.9736328 73.9882541 28.8388665 73.6659917 28.6499036 73.3993888 28.4067383 73.132786 28.163573 72.926245 27.8779313 72.7797599 27.5498047 72.6332748 27.221678 72.5600334 26.8642597 72.5600334 26.4775391 72.5600334 26.0146461 72.6596418 25.5971698 72.8588615 25.2250977 73.0580812 24.8530255 73.3451878 24.5366224 73.7201896 24.2758789 74.0951915 24.0151354 74.5507534 23.8159187 75.0868888 23.6782227 75.6230243 23.5405267 76.2250691 23.4716797 76.8930412 23.4716797L78.8442131 23.4716797 78.8442131 22.390625C78.8442131 21.7109341 78.6347425 21.1762715 78.2157951 20.7866211 77.7968477 20.3969707 77.186014 20.2021484 76.3832756 20.2021484 76.0141331 20.2021484 75.6742927 20.2519526 75.3637443 20.3515625 75.0531959 20.4511724 74.7851322 20.5888663 74.5595451 20.7646484 74.333958 20.9404306 74.1581785 21.1440418 74.0322013 21.3754883 73.9062242 21.6069348 73.8432365 21.8544909 73.8432365 22.1181641L72.788549 22.109375C72.788549 21.7519513 72.8764387 21.4062517 73.0522209 21.0722656 73.228003 20.7382796 73.4755591 20.4409193 73.7948967 20.1801758 74.1142342 19.9194323 74.4980194 19.7099617 74.9462638 19.5517578 75.3945083 19.3935539 75.8910853 19.3144531 76.4360099 19.3144531 76.9399187 19.3144531 77.4042695 19.3789056 77.8290763 19.5078125 78.2538832 19.6367194 78.6186256 19.8300768 78.9233146 20.0878906 79.2280037 20.3457044 79.465306 20.6679668 79.6352287 21.0546875 79.8051514 21.4414082 79.8901115 21.8925755 79.8901115 22.4082031L79.8901115 27.0136719C79.8901115 27.1777352 79.8959708 27.3476554 79.9076896 27.5234375 79.9194084 27.6992196 79.9384512 27.8691398 79.9648185 28.0332031 79.9911859 28.1972664 80.0219473 28.3540032 80.0571037 28.503418 80.0922601 28.6528328 80.1332753 28.7832026 80.1801506 28.8945312L80.1801506 29 79.0551506 29zM75.7504631 28.2441406C76.1313243 28.2441406 76.4843482 28.1958013 76.8095451 28.0991211 77.134742 28.0024409 77.4291727 27.8691415 77.6928459 27.6992188 77.9565191 27.529296 78.1850324 27.3315441 78.3783928 27.105957 78.5717531 26.88037 78.727025 26.6357435 78.8442131 26.3720703L78.8442131 24.2802734 77.0424553 24.2802734C76.5033901 24.2802734 76.0214613 24.3286128 75.5966545 24.425293 75.1718477 24.5219731 74.8129645 24.6611319 74.5199943 24.8427734 74.2270241 25.024415 74.0029052 25.2456042 73.847631 25.5063477 73.6923568 25.7670911 73.6147209 26.0615218 73.6147209 26.3896484 73.6147209 26.6474622 73.6645251 26.889159 73.7641349 27.1147461 73.8637448 27.3403332 74.0058332 27.5366203 74.1904045 27.7036133 74.3749757 27.8706063 74.5990946 28.0024409 74.8627678 28.0991211 75.1264409 28.1958013 75.4223364 28.2441406 75.7504631 28.2441406zM85.7084709 27.4882812L88.4858146 19.4902344 89.6196037 19.4902344 85.5942131 30.5205078C85.5121814 30.7373058 85.4081785 30.9804674 85.2822013 31.25 85.1562242 31.5195326 84.9921633 31.7714832 84.7900138 32.0058594 84.5878644 32.2402355 84.3359138 32.4379875 84.0341545 32.5991211 83.7323951 32.7602547 83.364723 32.8408203 82.9311271 32.8408203 82.8725331 32.8408203 82.8051509 32.8364258 82.7289787 32.8276367 82.6528064 32.8188476 82.5766353 32.8085938 82.5004631 32.796875 82.4242908 32.7851562 82.3525142 32.7719727 82.285131 32.7573242 82.2177479 32.7426757 82.1635492 32.7294922 82.1225334 32.7177734L82.1137443 31.8476562C82.1840572 31.8593751 82.2792711 31.8710937 82.3993888 31.8828125 82.5195066 31.8945313 82.6059316 31.9003906 82.6586662 31.9003906 82.9399176 31.9003906 83.1889385 31.8637699 83.4057365 31.7905273 83.6225345 31.7172848 83.8114974 31.6088874 83.972631 31.465332 84.1337647 31.3217766 84.2758531 31.1416026 84.3989006 30.9248047 84.5219481 30.7080067 84.6332751 30.4589858 84.7328849 30.1777344L85.1899162 28.9208984 81.6039787 19.4902344 82.7553459 19.4902344 85.7084709 27.4882812zM.68359375.954101562L3.10058594.954101562C5.19042969.954101562 6.42578125 2.2578125 6.42578125 4.47460938 6.42578125 6.69628906 5.1953125 8 3.10058594 8L.68359375 8 .68359375.954101562zM1.5625 1.74511719L1.5625 7.20898438 3.04199219 7.20898438C4.63867188 7.20898438 5.52734375 6.23242188 5.52734375 4.484375 5.52734375 2.72167969 4.64355469 1.74511719 3.04199219 1.74511719L1.5625 1.74511719zM10.5751953 8.04882812C9.09570312 8.04882812 8.1484375 6.99902344 8.1484375 5.36816406 8.1484375 3.73242188 9.09570312 2.6875 10.5751953 2.6875 12.0546875 2.6875 13.0019531 3.73242188 13.0019531 5.36816406 13.0019531 6.99902344 12.0546875 8.04882812 10.5751953 8.04882812zM10.5751953 7.29199219C11.5566406 7.29199219 12.1376953 6.57421875 12.1376953 5.36816406 12.1376953 4.15722656 11.5566406 3.44433594 10.5751953 3.44433594 9.59375 3.44433594 9.01269531 4.16210938 9.01269531 5.36816406 9.01269531 6.57421875 9.59863281 7.29199219 10.5751953 7.29199219zM21.5556641 2.73632812L20.7158203 2.73632812 19.6464844 7.03808594 19.6269531 7.03808594 18.4208984 2.73632812 17.6005859 2.73632812 16.3945312 7.03808594 16.375 7.03808594 15.3056641 2.73632812 14.4658203 2.73632812 15.9404297 8 16.7998047 8 18.0009766 3.90820312 18.0205078 3.90820312 19.2216797 8 20.0810547 8 21.5556641 2.73632812zM23.2783203 8L24.1279297 8 24.1279297 4.94335938C24.1279297 4.04003906 24.6503906 3.44433594 25.5146484 3.44433594 26.3447266 3.44433594 26.7451172 3.91308594 26.7451172 4.77246094L26.7451172 8 27.5947266 8 27.5947266 4.62597656C27.5947266 3.4296875 26.9257812 2.6875 25.7685547 2.6875 24.953125 2.6875 24.4306641 2.99511719 24.0986328 3.59082031L24.0791016 3.59082031 24.0791016 2.73632812 23.2783203 2.73632812 23.2783203 8zM29.7714844 8L30.6210938 8 30.6210938.646484375 29.7714844.646484375 29.7714844 8zM34.9902344 8.04882812C33.5107422 8.04882812 32.5634766 6.99902344 32.5634766 5.36816406 32.5634766 3.73242188 33.5107422 2.6875 34.9902344 2.6875 36.4697266 2.6875 37.4169922 3.73242188 37.4169922 5.36816406 37.4169922 6.99902344 36.4697266 8.04882812 34.9902344 8.04882812zM34.9902344 7.29199219C35.9716797 7.29199219 36.5527344 6.57421875 36.5527344 5.36816406 36.5527344 4.15722656 35.9716797 3.44433594 34.9902344 3.44433594 34.0087891 3.44433594 33.4277344 4.16210938 33.4277344 5.36816406 33.4277344 6.57421875 34.0136719 7.29199219 34.9902344 7.29199219zM41.0292969 7.31152344C41.8886719 7.31152344 42.5185547 6.75488281 42.5185547 5.99804688L42.5185547 5.57324219 41.1416016 5.66113281C40.3505859 5.70996094 39.9404297 5.99804688 39.9404297 6.50585938 39.9404297 6.99414062 40.3652344 7.31152344 41.0292969 7.31152344zM40.8486328 8.04882812C39.7792969 8.04882812 39.0712891 7.43359375 39.0712891 6.50097656 39.0712891 5.59765625 39.7646484 5.06542969 41.0439453 4.98730469L42.5185547 4.89941406 42.5185547 4.45996094C42.5185547 3.80566406 42.0888672 3.44433594 41.3125 3.44433594 40.7021484 3.44433594 40.2480469 3.75683594 40.1455078 4.25488281L39.3300781 4.25488281C39.3544922 3.36621094 40.21875 2.6875 41.3222656 2.6875 42.5673828 2.6875 43.3681641 3.3515625 43.3681641 4.38671875L43.3681641 8 42.5625 8 42.5625 7.08691406 42.5429688 7.08691406C42.2451172 7.67285156 41.5859375 8.04882812 40.8486328 8.04882812zM47.4931641 8.04882812C46.1699219 8.04882812 45.2373047 6.97460938 45.2373047 5.36816406 45.2373047 3.76171875 46.1650391 2.6875 47.4736328 2.6875 48.2255859 2.6875 48.8310547 3.01464844 49.1533203 3.59082031L49.1728516 3.59082031 49.1728516.646484375 50.0224609.646484375 50.0224609 8 49.2119141 8 49.2119141 7.11132812 49.1972656 7.11132812C48.8554688 7.71679688 48.2548828 8.04882812 47.4931641 8.04882812zM47.6445312 3.44433594C46.7216797 3.44433594 46.1064453 4.20605469 46.1064453 5.36816406 46.1064453 6.53515625 46.7216797 7.29199219 47.6445312 7.29199219 48.5576172 7.29199219 49.1777344 6.515625 49.1777344 5.36816406 49.1777344 4.22558594 48.5576172 3.44433594 47.6445312 3.44433594zM57.7841797 8.04882812C56.3046875 8.04882812 55.3574219 6.99902344 55.3574219 5.36816406 55.3574219 3.73242188 56.3046875 2.6875 57.7841797 2.6875 59.2636719 2.6875 60.2109375 3.73242188 60.2109375 5.36816406 60.2109375 6.99902344 59.2636719 8.04882812 57.7841797 8.04882812zM57.7841797 7.29199219C58.765625 7.29199219 59.3466797 6.57421875 59.3466797 5.36816406 59.3466797 4.15722656 58.765625 3.44433594 57.7841797 3.44433594 56.8027344 3.44433594 56.2216797 4.16210938 56.2216797 5.36816406 56.2216797 6.57421875 56.8076172 7.29199219 57.7841797 7.29199219zM62.1044922 8L62.9541016 8 62.9541016 4.94335938C62.9541016 4.04003906 63.4765625 3.44433594 64.3408203 3.44433594 65.1708984 3.44433594 65.5712891 3.91308594 65.5712891 4.77246094L65.5712891 8 66.4208984 8 66.4208984 4.62597656C66.4208984 3.4296875 65.7519531 2.6875 64.5947266 2.6875 63.7792969 2.6875 63.2568359 2.99511719 62.9248047 3.59082031L62.9052734 3.59082031 62.9052734 2.73632812 62.1044922 2.73632812 62.1044922 8zM72.2197266 1.54980469L72.2197266 2.73632812 71.4873047 2.73632812 71.4873047 3.43945312 72.2197266 3.43945312 72.2197266 6.6328125C72.2197266 7.64355469 72.5908203 8.0390625 73.5429688 8.0390625 73.7431641 8.0390625 73.9873047 8.01953125 74.0898438 7.99511719L74.0898438 7.27734375C74.03125 7.28710938 73.8261719 7.30175781 73.7236328 7.30175781 73.2744141 7.30175781 73.0693359 7.08203125 73.0693359 6.59863281L73.0693359 3.43945312 74.0947266 3.43945312 74.0947266 2.73632812 73.0693359 2.73632812 73.0693359 1.54980469 72.2197266 1.54980469zM76.0859375 8L76.9355469 8 76.9355469 4.97265625C76.9355469 4.04980469 77.4824219 3.44433594 78.3710938 3.44433594 79.2060547 3.44433594 79.6308594 3.95214844 79.6308594 4.79199219L79.6308594 8 80.4804688 8 80.4804688 4.640625C80.4804688 3.46875 79.7773438 2.6875 78.625 2.6875 77.8193359 2.6875 77.2822266 2.99511719 76.9550781 3.59082031L76.9355469 3.59082031 76.9355469.646484375 76.0859375.646484375 76.0859375 8zM84.7080078 3.43457031C83.8828125 3.43457031 83.2871094 4.03515625 83.2285156 4.92382812L86.1240234 4.92382812C86.1044922 4.03027344 85.5380859 3.43457031 84.7080078 3.43457031zM86.1044922 6.49609375L86.9443359 6.49609375C86.7978516 7.39941406 85.8847656 8.04882812 84.7617188 8.04882812 83.2822266 8.04882812 82.3496094 7.01855469 82.3496094 5.38769531 82.3496094 3.75683594 83.2871094 2.6875 84.7226562 2.6875 86.1289062 2.6875 87.0078125 3.67871094 87.0078125 5.27050781L87.0078125 5.60253906 83.2285156 5.60253906 83.2285156 5.65136719C83.2285156 6.65234375 83.84375 7.30175781 84.78125 7.30175781 85.4404297 7.30175781 85.953125 6.98925781 86.1044922 6.49609375z"></path>
<g fill-rule="nonzero" transform="translate(0 15)">
<path d="M23.15 9.436C23.15 11.99 21.152 13.872 18.7 13.872 16.248 13.872 14.25 11.99 14.25 9.436 14.25 6.864 16.248 5 18.7 5 21.152 5 23.15 6.864 23.15 9.436zM21.202 9.436C21.202 7.84 20.044 6.748 18.7 6.748 17.356 6.748 16.198 7.84 16.198 9.436 16.198 11.016 17.356 12.124 18.7 12.124 20.044 12.124 21.202 11.014 21.202 9.436zM32.75 9.436C32.75 11.99 30.752 13.872 28.3 13.872 25.848 13.872 23.85 11.99 23.85 9.436 23.85 6.866 25.848 5 28.3 5 30.752 5 32.75 6.864 32.75 9.436zM30.802 9.436C30.802 7.84 29.644 6.748 28.3 6.748 26.956 6.748 25.798 7.84 25.798 9.436 25.798 11.016 26.956 12.124 28.3 12.124 29.644 12.124 30.802 11.014 30.802 9.436zM41.95 5.268L41.95 13.232C41.95 16.508 40.018 17.846 37.734 17.846 35.584 17.846 34.29 16.408 33.802 15.232L35.498 14.526C35.8 15.248 36.54 16.1 37.732 16.1 39.194 16.1 40.1 15.198 40.1 13.5L40.1 12.862 40.032 12.862C39.596 13.4 38.756 13.87 37.696 13.87 35.478 13.87 33.446 11.938 33.446 9.452 33.446 6.948 35.478 5 37.696 5 38.754 5 39.594 5.47 40.032 5.992L40.1 5.992 40.1 5.27 41.95 5.27 41.95 5.268zM40.238 9.452C40.238 7.89 39.196 6.748 37.87 6.748 36.526 6.748 35.4 7.89 35.4 9.452 35.4 10.998 36.526 12.124 37.87 12.124 39.196 12.124 40.238 10.998 40.238 9.452z"></path>
<polygon points="45 .6 45 13.6 43.1 13.6 43.1 .6"></polygon>
<path d="M52.404 10.896L53.916 11.904C53.428 12.626 52.252 13.87 50.22 13.87 47.7 13.87 45.818 11.922 45.818 9.434 45.818 6.796 47.716 4.998 50.002 4.998 52.304 4.998 53.43 6.83 53.798 7.82L54 8.324 48.07 10.78C48.524 11.67 49.23 12.124 50.22 12.124 51.212 12.124 51.9 11.636 52.404 10.896zM47.75 9.3L51.714 7.654C51.496 7.1 50.84 6.714 50.068 6.714 49.078 6.714 47.7 7.588 47.75 9.3L47.75 9.3zM7.058 8.282L7.058 6.4 13.4 6.4C13.462 6.728 13.494 7.116 13.494 7.536 13.494 8.948 13.108 10.694 11.864 11.938 10.654 13.198 9.108 13.87 7.06 13.87 3.264 13.87.072 10.778.072 6.982.072 3.186 3.264.094 7.06.094 9.16.094 10.656.918 11.78 1.992L10.452 3.32C9.646 2.564 8.554 1.976 7.058 1.976 4.286 1.976 2.118 4.21 2.118 6.982 2.118 9.754 4.286 11.988 7.058 11.988 8.856 11.988 9.88 11.266 10.536 10.61 11.068 10.078 11.418 9.318 11.556 8.28L7.058 8.282z"></path>
</g>
</g>
<path fill-rule="nonzero" d="M0,28.9477864 L0,3.05522933 C0,2.15168571 0.523830423,1.37065957 1.28399831,1 L16.2616056,15.9970909 L1.27797465,31 C0.521061972,30.6282133 0,29.8489997 0,28.9477864 Z M21.0133014,20.7547721 L4.63624225,30.2223094 L17.5524338,17.2894341 L21.0133014,20.7547721 Z M26.1039042,14.1862873 C26.6486197,14.6037667 27,15.26159 27,16.0015079 C27,16.7303072 26.6592676,17.3792965 26.1285465,17.7975375 L22.6498817,19.8086276 L18.8431099,15.9970909 L22.6472958,12.1879607 L26.1039042,14.1862873 Z M4.64584056,1.78142214 L21.0107155,11.2418771 L17.5524338,14.7045954 L4.64584056,1.78142214 Z"></path>
</g>
</svg>
