<svg class="svg-stroke-container" width="24" height="22" viewBox="0 0 24 22" xmlns="http://www.w3.org/2000/svg">
<path d="M.5 21.5c.66-1.305 2.085-2.274 5.085-3.456 2.957-1.219 3.436-2.088 3.436-3.7 0-.38-.072-.472-.285-.749-.303-.39-.716-.924-.97-2.308l-.029-.126c-.618-.341-.972-.808-1.062-2.194 0-.688.192-1.115.384-1.366a52.882 52.882 0 0 1-.241-2c-.066-.879.19-2.286 1.124-3.405C8.588 1.423 9.818.5 12.014.5c2.273 0 3.52.963 4.166 1.77.91 1.134 1.122 2.51 1.03 3.343a19.481 19.481 0 0 1-.231 1.993c.187.249.375.661.375 1.318-.09 1.43-.444 1.896-.986 2.2l-.102.15c-.23 1.409-.659 1.945-.97 2.338-.216.272-.289.363-.289.732 0 1.564.497 2.47 3.447 3.704 2.786 1.098 4.204 2.054 5.046 3.403" stroke="#FFFFFF" fill-rule="nonzero" fill="none" stroke-linecap="round" stroke-linejoin="round"></path>
</svg>
